<svg version="1.1" viewBox="0 0 512 512" xmlns="http://www.w3.org/2000/svg" xmlns:xlink="http://www.w3.org/1999/xlink"><defs><clipPath id="c"><g display="none"><path d="m204 162.99c-51.247 0-93.006 41.758-93.006 93.006s41.758 93.006 93.006 93.006c19.24 0 37.142-5.8887 52-15.953 14.858 10.064 32.76 15.953 52 15.953 51.247 0 93.006-41.758 93.006-93.006s-41.758-93.006-93.006-93.006c-19.24 0-37.142 5.8887-52 15.953-14.858-10.064-32.76-15.953-52-15.953z" display="inline"/></g><path class="powerclip" d="m152.99 121.31h206.01v269.37h-206.01zm51.006 41.679c-51.247 0-93.006 41.758-93.006 93.006s41.758 93.006 93.006 93.006c19.24 0 37.142-5.8887 52-15.953 14.858 10.064 32.76 15.953 52 15.953 51.247 0 93.006-41.758 93.006-93.006s-41.758-93.006-93.006-93.006c-19.24 0-37.142 5.8887-52 15.953-14.858-10.064-32.76-15.953-52-15.953z"/></clipPath><linearGradient id="b" x1="308.88" x2="308.88" y1="339.23" y2="172.18" gradientUnits="userSpaceOnUse"><stop stop-color="#354c5e" offset="0"/><stop stop-color="#5a758f" offset="1"/></linearGradient><linearGradient id="a" x1="308.25" x2="308.25" y1="339.5" y2="173.5" gradientUnits="userSpaceOnUse"><stop stop-color="#93adc2" offset="0"/><stop stop-color="#eaf4fc" offset="1"/></linearGradient></defs><g transform="matrix(1.1835 0 0 1.1835 -45.987 -46.986)"><g stroke-width="0"><rect x="142.89" y="235.62" width="59.166" height="6.75" ry="3.375" fill="#283a4a" style="paint-order:stroke fill markers"/><rect x="64.768" y="235.62" width="54.791" height="6.75" ry="3.375" fill="#122236" style="paint-order:stroke fill markers"/><rect transform="scale(-1,1)" x="-61.08" y="235.62" width="11.709" height="6.75" ry="3.375" fill="#122236" style="paint-order:stroke fill markers"/><rect x="42.518" y="252.38" width="78.791" height="6.75" ry="3.375" fill="#25384c" style="paint-order:stroke fill markers"/><rect x="64.768" y="269.62" width="54.791" height="6.75" ry="3.375" fill="#122236" style="paint-order:stroke fill markers"/><rect transform="scale(-1,1)" x="-61.08" y="269.62" width="11.709" height="6.75" ry="3.375" fill="#122236" style="paint-order:stroke fill markers"/><rect x="343.37" y="235.62" width="108.18" height="6.75" ry="3.375" fill="#41576b" style="paint-order:stroke fill markers"/><rect x="322.18" y="252.38" width="136.42" height="6.75" ry="3.375" fill="#25384c" style="paint-order:stroke fill markers"/><rect x="331.17" y="269.62" width="119.67" height="6.75" ry="3.375" fill="#122236" style="paint-order:stroke fill markers"/><rect x="151.94" y="252.38" width="133.59" height="6.75" ry="3.375" fill="#25384c" style="paint-order:stroke fill markers"/><rect x="250.9" y="235.62" width="10.375" height="6.75" ry="3.375" fill="#283a4a" style="paint-order:stroke fill markers"/><rect x="144.32" y="269.62" width="118.08" height="6.75" ry="3.375" fill="#122236" style="paint-order:stroke fill markers"/><rect x="303.42" y="269.62" width="20.168" height="6.75" ry="3.375" fill="#122236" style="paint-order:stroke fill markers"/><rect x="306.18" y="252.38" width="9.9199" height="6.75" ry="3.375" fill="#25384c" style="paint-order:stroke fill markers"/><rect x="305.49" y="235.62" width="32.927" height="6.75" ry="3.375" fill="#41576b" style="paint-order:stroke fill markers"/></g><g fill="#0f212e"><path transform="matrix(.69231 0 0 1 39.835 0)" x="124.86723" y="157.00505" width="9.1923885" height="197.9899" d="m124.87 157.01h9.1924v197.99h-9.1924z" style="paint-order:stroke fill markers"/><path transform="matrix(.89773 0 0 -.89773 -100.35 590.89)" d="m273 256a17 17 0 0 1-16.997 17 17 17 0 0 1-17.003-16.993 17 17 0 0 1 16.99-17.007 17 17 0 0 1 17.01 16.986" stroke="#0e202e" stroke-linecap="round" stroke-width="10" style="paint-order:stroke fill markers"/><path transform="matrix(.89773 0 0 .89773 -100.35 -78.887)" d="m273 256a17 17 0 0 1-16.997 17 17 17 0 0 1-17.003-16.993 17 17 0 0 1 16.99-17.007 17 17 0 0 1 17.01 16.986" stroke="#0e202e" stroke-linecap="round" stroke-width="10" style="paint-order:stroke fill markers"/><path transform="matrix(-.69231 0 0 1 470.48 0)" d="m124.87 157.01h9.1924v197.99h-9.1924z" style="paint-order:stroke fill markers"/><path transform="matrix(0 .69231 -1.2399 0 573.42 61.302)" x="124.86723" y="157.00505" width="9.1923885" height="197.9899" d="m124.87 157.01h9.1924v197.99h-9.1924z" style="paint-order:stroke fill markers"/></g><path transform="matrix(-.89773 0 0 .89773 610.67 -78.887)" d="m273 256a17 17 0 0 1-16.997 17 17 17 0 0 1-17.003-16.993 17 17 0 0 1 16.99-17.007 17 17 0 0 1 17.01 16.986" fill="#6b8ca7" stroke="#0e202e" stroke-linecap="round" stroke-width="10" style="paint-order:stroke fill markers"/><path transform="matrix(0 -.69231 -1.2399 0 573.42 450.7)" d="m124.87 157.01h9.1924v197.99h-9.1924z" fill="#0f212e" style="paint-order:stroke fill markers"/><path transform="matrix(-.89773 0 0 -.89773 610.67 590.89)" d="m273 256a17 17 0 0 1-16.997 17 17 17 0 0 1-17.003-16.993 17 17 0 0 1 16.99-17.007 17 17 0 0 1 17.01 16.986" fill="#5a768d" stroke="#0e202e" stroke-linecap="round" stroke-width="10" style="paint-order:stroke fill markers"/></g><g transform="matrix(1.1835 0 0 1.1835 -45.987 -46.986)" clip-path="url(#c)" stroke-linecap="round" stroke-linejoin="round"><g transform="matrix(1 0 0 -1 0 492.55)" clip-path="none"><path d="m256 111.87c-51.247 0-93.006 41.758-93.006 93.006s41.758 93.006 93.006 93.006 93.006-41.758 93.006-93.006-41.758-93.006-93.006-93.006zm0 20c40.439 0 73.006 32.567 73.006 73.006s-32.567 73.006-73.006 73.006-73.006-32.567-73.006-73.006 32.567-73.006 73.006-73.006z" fill="#354c5e" stroke="#f5f3f4" stroke-width="10" style="paint-order:stroke fill markers"/><path d="m256 109.37c-52.605 0-95.506 42.9-95.506 95.506s42.9 95.506 95.506 95.506 95.506-42.9 95.506-95.506-42.9-95.506-95.506-95.506zm0 5c49.889 0 90.506 40.617 90.506 90.506s-40.617 90.506-90.506 90.506-90.506-40.617-90.506-90.506 40.617-90.506 90.506-90.506zm0 15c-41.781 0-75.506 33.725-75.506 75.506s33.725 75.506 75.506 75.506 75.506-33.725 75.506-75.506-33.725-75.506-75.506-75.506zm0 5c39.096 0 70.506 31.41 70.506 70.506s-31.41 70.506-70.506 70.506-70.506-31.41-70.506-70.506 31.41-70.506 70.506-70.506z" fill="#0f1d2e"/></g><g transform="translate(0 19.445)" clip-path="none"><path d="m256 111.87c-51.247 0-93.006 41.758-93.006 93.006s41.758 93.006 93.006 93.006 93.006-41.758 93.006-93.006-41.758-93.006-93.006-93.006zm0 20c40.439 0 73.006 32.567 73.006 73.006s-32.567 73.006-73.006 73.006-73.006-32.567-73.006-73.006 32.567-73.006 73.006-73.006z" fill="#354c5e" stroke="#f5f3f4" stroke-width="10" style="paint-order:stroke fill markers"/><path d="m256 109.37c-52.605 0-95.506 42.9-95.506 95.506s42.9 95.506 95.506 95.506 95.506-42.9 95.506-95.506-42.9-95.506-95.506-95.506zm0 5c49.889 0 90.506 40.617 90.506 90.506s-40.617 90.506-90.506 90.506-90.506-40.617-90.506-90.506 40.617-90.506 90.506-90.506zm0 15c-41.781 0-75.506 33.725-75.506 75.506s33.725 75.506 75.506 75.506 75.506-33.725 75.506-75.506-33.725-75.506-75.506-75.506zm0 5c39.096 0 70.506 31.41 70.506 70.506s-31.41 70.506-70.506 70.506-70.506-31.41-70.506-70.506 31.41-70.506 70.506-70.506z" fill="#0f1d2e"/></g></g><g transform="matrix(1.1835 0 0 1.1835 -45.987 -46.986)"><g transform="matrix(-1,0,0,1,512,0)" stroke-linecap="round" stroke-linejoin="round"><path d="m308 162.99c-51.247 0-93.006 41.758-93.006 93.006s41.758 93.006 93.006 93.006 93.006-41.758 93.006-93.006-41.758-93.006-93.006-93.006zm0 20c40.439 0 73.006 32.567 73.006 73.006s-32.567 73.006-73.006 73.006-73.006-32.567-73.006-73.006 32.567-73.006 73.006-73.006z" fill="url(#b)" stroke="#f5f3f4" stroke-width="10" style="paint-order:stroke fill markers"/><path d="m308 160.49c-52.605 0-95.506 42.9-95.506 95.506s42.9 95.506 95.506 95.506 95.506-42.9 95.506-95.506-42.9-95.506-95.506-95.506zm0 5c49.889 0 90.506 40.617 90.506 90.506s-40.617 90.506-90.506 90.506-90.506-40.617-90.506-90.506 40.617-90.506 90.506-90.506zm0 15c-41.781 0-75.506 33.725-75.506 75.506s33.725 75.506 75.506 75.506 75.506-33.725 75.506-75.506-33.725-75.506-75.506-75.506zm0 5c39.096 0 70.506 31.41 70.506 70.506s-31.41 70.506-70.506 70.506-70.506-31.41-70.506-70.506 31.41-70.506 70.506-70.506z" fill="#0f1d2e"/></g><g><path d="m308 162.99c-51.247 0-93.006 41.758-93.006 93.006s41.758 93.006 93.006 93.006 93.006-41.758 93.006-93.006-41.758-93.006-93.006-93.006zm0 20c40.439 0 73.006 32.567 73.006 73.006s-32.567 73.006-73.006 73.006-73.006-32.567-73.006-73.006 32.567-73.006 73.006-73.006z" fill="url(#a)" stroke="#f5f3f4" stroke-linecap="round" stroke-linejoin="round" stroke-width="10" style="paint-order:stroke fill markers"/><path d="m308 160.49c-52.605 0-95.506 42.9-95.506 95.506s42.9 95.506 95.506 95.506 95.506-42.9 95.506-95.506-42.9-95.506-95.506-95.506zm0 5c49.889 0 90.506 40.617 90.506 90.506s-40.617 90.506-90.506 90.506-90.506-40.617-90.506-90.506 40.617-90.506 90.506-90.506zm0 15c-41.781 0-75.506 33.725-75.506 75.506s33.725 75.506 75.506 75.506 75.506-33.725 75.506-75.506-33.725-75.506-75.506-75.506zm0 5c39.096 0 70.506 31.41 70.506 70.506s-31.41 70.506-70.506 70.506-70.506-31.41-70.506-70.506 31.41-70.506 70.506-70.506z" color="#000000" color-rendering="auto" dominant-baseline="auto" fill="#0f1d2e" image-rendering="auto" shape-rendering="auto" solid-color="#000000" stop-color="#000000" style="-inkscape-stroke:none;font-feature-settings:normal;font-variant-alternates:normal;font-variant-caps:normal;font-variant-east-asian:normal;font-variant-ligatures:normal;font-variant-numeric:normal;font-variant-position:normal;font-variation-settings:normal;inline-size:0;isolation:auto;mix-blend-mode:normal;shape-margin:0;shape-padding:0;text-decoration-color:#000000;text-decoration-line:none;text-decoration-style:solid;text-indent:0;text-orientation:mixed;text-transform:none;white-space:normal"/></g></g></svg>
